<svg width="32" height="32" viewBox="0 0 32 32" fill="none" xmlns="http://www.w3.org/2000/svg">
<circle cx="16" cy="16" r="15.5" fill="white" stroke="#B0B0B0"/>
<g clip-path="url(#clip0_210_2713)">
<path d="M24.8001 21.5998C24.8001 22.0242 24.6315 22.4311 24.3314 22.7312C24.0314 23.0312 23.6244 23.1998 23.2001 23.1998H8.80007C8.37573 23.1998 7.96876 23.0312 7.6687 22.7312C7.36864 22.4311 7.20007 22.0242 7.20007 21.5998V12.7998C7.20007 12.3755 7.36864 11.9685 7.6687 11.6684C7.96876 11.3684 8.37573 11.1998 8.80007 11.1998H12.0001L13.6001 8.7998H18.4001L20.0001 11.1998H23.2001C23.6244 11.1998 24.0314 11.3684 24.3314 11.6684C24.6315 11.9685 24.8001 12.3755 24.8001 12.7998V21.5998Z" stroke="#B0B0B0" stroke-width="2" stroke-linecap="round" stroke-linejoin="round"/>
<path d="M16 19.9999C17.7674 19.9999 19.2 18.5672 19.2 16.7999C19.2 15.0325 17.7674 13.5999 16 13.5999C14.2327 13.5999 12.8 15.0325 12.8 16.7999C12.8 18.5672 14.2327 19.9999 16 19.9999Z" stroke="#B0B0B0" stroke-width="2" stroke-linecap="round" stroke-linejoin="round"/>
</g>
<defs>
<clipPath id="clip0_210_2713">
<rect width="19.2" height="19.2" fill="white" transform="translate(6.40002 6.3999)"/>
</clipPath>
</defs>
</svg>
