<svg width="25" height="25" viewBox="0 0 25 25" fill="none" xmlns="http://www.w3.org/2000/svg">
<path fill-rule="evenodd" clip-rule="evenodd" d="M4.125 10.4167C4.125 6.94187 6.94187 4.125 10.4167 4.125C13.8915 4.125 16.7083 6.94187 16.7083 10.4167C16.7083 13.8915 13.8915 16.7083 10.4167 16.7083C6.94187 16.7083 4.125 13.8915 4.125 10.4167ZM10.4167 2.125C5.83731 2.125 2.125 5.83731 2.125 10.4167C2.125 14.996 5.83731 18.7083 10.4167 18.7083C12.346 18.7083 14.1214 18.0494 15.5301 16.9443L21.1679 22.5821C21.5584 22.9726 22.1916 22.9726 22.5821 22.5821C22.9726 22.1916 22.9726 21.5584 22.5821 21.1679L16.9443 15.5301C18.0494 14.1214 18.7083 12.346 18.7083 10.4167C18.7083 5.83731 14.996 2.125 10.4167 2.125Z" fill="#216C99"/>
</svg>
